<svg id="그룹_7688" data-name="그룹 7688" xmlns="http://www.w3.org/2000/svg" xmlns:xlink="http://www.w3.org/1999/xlink" width="50" height="52.433" viewBox="0 0 50 52.433">
  <defs>
    <clipPath id="clip-path">
      <rect id="사각형_3404" data-name="사각형 3404" width="50" height="52.433" fill="#362f2f"/>
    </clipPath>
  </defs>
  <g id="그룹_7687" data-name="그룹 7687" clip-path="url(#clip-path)">
    <g id="그룹_7686" data-name="그룹 7686">
      <g id="그룹_7685" data-name="그룹 7685" clip-path="url(#clip-path)">
        <path id="패스_8479" data-name="패스 8479" d="M53.223,15.524a1.481,1.481,0,0,1,1.483,1.484v1.44h4.4a1.413,1.413,0,0,1,1.408,1.407V52.592A1.414,1.414,0,0,1,59.107,54H30.976a1.413,1.413,0,0,1-1.408-1.408V19.855a1.412,1.412,0,0,1,1.408-1.407h4.4v-1.44a1.483,1.483,0,1,1,2.966,0v1.44h5.217v-1.44a1.483,1.483,0,1,1,2.966,0v1.44h5.215v-1.44a1.483,1.483,0,0,1,1.484-1.484m0-2.426a3.917,3.917,0,0,0-3.784,2.923h-.615a3.909,3.909,0,0,0-7.566,0h-.617a3.91,3.91,0,0,0-7.566,0h-2.1a3.838,3.838,0,0,0-3.834,3.834V52.592a3.838,3.838,0,0,0,3.834,3.834H59.107a3.838,3.838,0,0,0,3.835-3.834V19.855a3.838,3.838,0,0,0-3.835-3.834h-2.1A3.916,3.916,0,0,0,53.223,13.1" transform="translate(-19.208 -9.269)" fill="#362f2f"/>
        <path id="패스_8480" data-name="패스 8480" d="M72.319,109.771a1.213,1.213,0,0,1-1.213-1.213v-3.566a8.019,8.019,0,0,0-16.037,0v3.566a1.213,1.213,0,1,1-2.426,0v-3.566a10.445,10.445,0,0,1,20.89,0v3.566a1.213,1.213,0,0,1-1.213,1.213" transform="translate(-37.254 -66.908)" fill="#362f2f"/>
        <path id="패스_8481" data-name="패스 8481" d="M68.814,63.735a8.078,8.078,0,1,1,8.079-8.078,8.087,8.087,0,0,1-8.079,8.078m0-13.731a5.652,5.652,0,1,0,5.653,5.653A5.659,5.659,0,0,0,68.814,50" transform="translate(-42.981 -33.669)" fill="#362f2f"/>
        <path id="패스_8482" data-name="패스 8482" d="M85.433,104.334a1.213,1.213,0,0,1-1.213-1.213V95.76a1.213,1.213,0,1,1,2.426,0v7.361a1.213,1.213,0,0,1-1.213,1.213" transform="translate(-59.6 -66.908)" fill="#362f2f"/>
      </g>
    </g>
  </g>
</svg>
