<svg id="person" xmlns="http://www.w3.org/2000/svg" width="25" height="25" viewBox="0 0 25 25">
  <path id="패스_8491" data-name="패스 8491" d="M27.417,29.5A2.04,2.04,0,0,0,29.5,27.417c0-2.083-2.083-8.333-12.5-8.333S4.5,25.333,4.5,27.417A2.04,2.04,0,0,0,6.583,29.5ZM6.594,27.533v0Zm.035-.117H27.37l.03,0,.017,0a5.563,5.563,0,0,0-1.733-3.467c-1.358-1.357-3.915-2.774-8.683-2.774s-7.325,1.417-8.683,2.775a5.578,5.578,0,0,0-1.733,3.467Zm20.78.117v0ZM17,14.917a4.167,4.167,0,1,0-4.167-4.167A4.167,4.167,0,0,0,17,14.917Zm6.25-4.167A6.25,6.25,0,1,1,17,4.5,6.25,6.25,0,0,1,23.25,10.75Z" transform="translate(-4.5 -4.5)" fill="#fbfb17" fill-rule="evenodd"/>
</svg>
