<svg id="telephone" xmlns="http://www.w3.org/2000/svg" width="25" height="24.997" viewBox="0 0 25 24.997">
  <path id="패스_8489" data-name="패스 8489" d="M6.832,3.2a1.06,1.06,0,0,0-1.585-.1L3.63,4.719a2.671,2.671,0,0,0-.7,2.763A27.447,27.447,0,0,0,9.441,17.808a27.449,27.449,0,0,0,10.326,6.511,2.673,2.673,0,0,0,2.763-.7L24.146,22a1.06,1.06,0,0,0-.1-1.585l-3.6-2.8a1.06,1.06,0,0,0-.907-.192l-3.42.855a2.726,2.726,0,0,1-2.59-.717L9.691,13.721a2.726,2.726,0,0,1-.717-2.59l.855-3.42A1.06,1.06,0,0,0,9.637,6.8ZM4.07,1.926a2.726,2.726,0,0,1,4.08.255l2.8,3.6a2.719,2.719,0,0,1,.493,2.333l-.855,3.421a1.06,1.06,0,0,0,.278,1.007l3.84,3.837a1.06,1.06,0,0,0,1.007.278l3.42-.855a2.726,2.726,0,0,1,2.335.493l3.6,2.8a2.726,2.726,0,0,1,.255,4.08L23.709,24.8a4.342,4.342,0,0,1-4.494,1.1A29.114,29.114,0,0,1,8.263,18.986,29.114,29.114,0,0,1,1.357,8.035a4.344,4.344,0,0,1,1.1-4.5L4.07,1.924Z" transform="translate(-1.124 -1.128)" fill="#fbfb17" fill-rule="evenodd"/>
</svg>
