<svg xmlns="http://www.w3.org/2000/svg" xmlns:xlink="http://www.w3.org/1999/xlink" width="70" height="74.38" viewBox="0 0 70 74.38">
  <defs>
    <clipPath id="clip-path">
      <rect id="사각형_4145" data-name="사각형 4145" width="70" height="74.38" fill="#f6f7f7"/>
    </clipPath>
  </defs>
  <g id="그룹_9859" data-name="그룹 9859" transform="translate(0 0)">
    <g id="그룹_9858" data-name="그룹 9858" transform="translate(0 0)" clip-path="url(#clip-path)">
      <path id="패스_14707" data-name="패스 14707" d="M15.238,72.71H54.762V67.19a3.348,3.348,0,0,0-3.34-3.34H18.578a3.328,3.328,0,0,0-2.359.977l0,0a3.328,3.328,0,0,0-.977,2.359ZM14.4,0H55.6a.836.836,0,0,1,.835.835V5.152H64.99A5.023,5.023,0,0,1,70,10.162V26.9a4.9,4.9,0,0,1-2.051,4.039L56.134,39.6a.936.936,0,0,1-.093.066L45.1,47.682a3.2,3.2,0,0,0-1.365,2.694V62.181h7.69a5.023,5.023,0,0,1,5.01,5.01v6.355a.836.836,0,0,1-.835.835H14.4a.836.836,0,0,1-.835-.835V67.19a5,5,0,0,1,1.461-3.529l.01-.007v0h0a4.992,4.992,0,0,1,3.535-1.471H26.94V51.061a3.194,3.194,0,0,0-1.335-2.674L13.946,39.654l-.033-.023L2.051,30.94A4.9,4.9,0,0,1,0,26.9V10.162A5,5,0,0,1,1.461,6.633l.01-.007v0h0A4.992,4.992,0,0,1,5.01,5.152h8.558V.835A.838.838,0,0,1,14.4,0M56.432,6.822V37.314L66.965,29.6a3.336,3.336,0,0,0,1.02-1.176A3.377,3.377,0,0,0,68.33,26.9V10.162a3.348,3.348,0,0,0-3.34-3.34ZM13.568,37.314V6.822H5.01A3.328,3.328,0,0,0,2.651,7.8l0,0a3.328,3.328,0,0,0-.977,2.359V26.9a3.335,3.335,0,0,0,.348,1.521A3.293,3.293,0,0,0,3.035,29.6ZM54.762,1.67H15.238V38.544L26.6,47.055a4.893,4.893,0,0,1,2.008,4.006V62.181H42.062V50.375a4.9,4.9,0,0,1,2.051-4.036l10.649-7.8V1.67ZM23.823,18.949a.834.834,0,0,0-.537,1.461l5.643,4.973-1.637,7.3a.833.833,0,0,0,1.226.941L35,29.793l6.474,3.837a.832.832,0,0,0,1.236-.895l-1.64-7.346,5.649-4.97,0,0a.823.823,0,0,0,.282-.543.833.833,0,0,0-.752-.908l-7.488-.709L35.77,11.348h0a.832.832,0,0,0-1.527,0l-2.989,6.9Zm8.071.914-6.06.567L30.4,24.459h0a.83.83,0,0,1,.262.808l-1.332,5.944,5.232-3.1a.831.831,0,0,1,.858,0l5.242,3.1-1.312-5.878a.832.832,0,0,1,.245-.875l4.572-4.022-6-.567a.831.831,0,0,1-.749-.507L35,13.773l-2.409,5.563a.829.829,0,0,1-.7.527" transform="translate(0 0)" fill="#f6f7f7" fill-rule="evenodd"/>
    </g>
  </g>
</svg>
