<svg id="그룹_9873" data-name="그룹 9873" xmlns="http://www.w3.org/2000/svg" xmlns:xlink="http://www.w3.org/1999/xlink" width="98.508" height="123.105" viewBox="0 0 98.508 123.105">
  <defs>
    <clipPath id="clip-path">
      <rect id="사각형_4153" data-name="사각형 4153" width="98.508" height="123.105" fill="#fff"/>
    </clipPath>
    <clipPath id="clip-path-3">
      <rect id="사각형_4149" data-name="사각형 4149" width="60.687" height="85.205" fill="#fff"/>
    </clipPath>
    <clipPath id="clip-path-4">
      <rect id="사각형_4152" data-name="사각형 4152" width="93.989" height="117.88" fill="#fff"/>
    </clipPath>
  </defs>
  <g id="그룹_9880" data-name="그룹 9880" clip-path="url(#clip-path)">
    <g id="그룹_9877" data-name="그룹 9877">
      <g id="그룹_9876" data-name="그룹 9876" clip-path="url(#clip-path)">
        <path id="패스_14711" data-name="패스 14711" d="M118.332,166.22a22.833,22.833,0,0,1-11.08-2.9L94.5,156.27a22.928,22.928,0,0,1-8.651-31.714l24.24-41.088a6.991,6.991,0,0,1,9.5-2.559l.134.075a6.909,6.909,0,0,1,2.72,9.223l-21.346,40.2a.765.765,0,0,1-1.351-.718l21.346-40.2a5.372,5.372,0,0,0-2.115-7.17l-.135-.075a5.471,5.471,0,0,0-7.436,2L87.167,125.333a21.4,21.4,0,0,0,8.074,29.6l12.75,7.051a21.4,21.4,0,0,0,31.486-15.347l2.621-16.39a4.546,4.546,0,0,0-8.846-2.018L127.8,146.551a.765.765,0,1,1-1.466-.436l5.452-18.324a6.076,6.076,0,0,1,11.823,2.7l-2.621,16.39a22.65,22.65,0,0,1-12.594,16.99,22.914,22.914,0,0,1-10.062,2.353" transform="translate(-63.593 -61.545)" fill="#fff"/>
        <path id="패스_14712" data-name="패스 14712" d="M93.088,121.026a.764.764,0,0,1-.655-.369l-12.1-20.036a4.355,4.355,0,0,1,1.387-5.9A9.764,9.764,0,0,1,95,97.545l6.276,9.433a.765.765,0,0,1-1.274.847l-6.276-9.433a8.225,8.225,0,0,0-11.19-2.376,2.817,2.817,0,0,0-.9,3.814l12.1,20.036a.765.765,0,0,1-.654,1.16" transform="translate(-61.327 -71.728)" fill="#fff"/>
        <path id="패스_14713" data-name="패스 14713" d="M170.694,213.011a.765.765,0,0,1-.708-1.054l10.558-25.92a5.5,5.5,0,0,0-2.409-6.865l-.274-.153a5.49,5.49,0,0,0-7.527,2.223l-12.521,23.631a.765.765,0,1,1-1.352-.716l12.521-23.631a7.019,7.019,0,0,1,9.624-2.843l.274.152a7.028,7.028,0,0,1,3.08,8.778L171.4,212.535a.765.765,0,0,1-.709.477" transform="translate(-120.307 -136.015)" fill="#fff"/>
        <path id="패스_14714" data-name="패스 14714" d="M229.08,251.008a.765.765,0,0,1-.733-.983l7.719-25.972a5.464,5.464,0,0,0-2.6-6.317l-.17-.095a5.49,5.49,0,0,0-7.76,2.723l-8.916,21.887a.765.765,0,1,1-1.417-.577l8.916-21.888a7.019,7.019,0,0,1,9.922-3.481l.17.095a6.988,6.988,0,0,1,3.321,8.083l-7.72,25.977a.765.765,0,0,1-.733.547" transform="translate(-165.526 -165.732)" fill="#fff"/>
        <g id="그룹_9875" data-name="그룹 9875" transform="translate(18.894 18.961)" opacity="0.6">
          <g id="그룹_9874" data-name="그룹 9874">
            <g id="그룹_9873-2" data-name="그룹 9873" clip-path="url(#clip-path-3)">
              <path id="패스_14715" data-name="패스 14715" d="M94.451,111.718l-8.73,14.8a22.418,22.418,0,0,0,8.459,31.009l12.75,7.051a22.143,22.143,0,0,0,20.672.533A22.146,22.146,0,0,0,139.916,148.5l2.621-16.39a5.564,5.564,0,0,0-9.692-4.536l1.7-5.715a6.48,6.48,0,0,0-3.08-7.5l-.17-.1a6.485,6.485,0,0,0-7.784,1.1l.7-1.712a6.517,6.517,0,0,0-2.856-8.14l-.274-.153a6.515,6.515,0,0,0-7.239.6l7.59-14.293a6.4,6.4,0,0,0-2.519-8.538l-.134-.075a6.631,6.631,0,0,0-3.222-.848,6.432,6.432,0,0,0-5.59,3.221L102.3,98.408l-6.031-9.064a9.208,9.208,0,0,0-7.7-4.086,9.108,9.108,0,0,0-4.888,1.413,3.843,3.843,0,0,0-1.224,5.2ZM110.4,85.685a5.931,5.931,0,0,1,5.156-2.966,6.107,6.107,0,0,1,2.968.78l.135.075a5.885,5.885,0,0,1,2.317,7.854L112.4,107.579c-.086.137-.172.273-.248.417L99.631,131.628s0,0,0,0a.253.253,0,0,0-.027.1.232.232,0,0,0,.051.166.253.253,0,0,0,.082.072h0a.248.248,0,0,0,.118.03h0a.255.255,0,0,0,.226-.135l12.771-24.051a5.946,5.946,0,0,1,3.353-2.525,5.958,5.958,0,0,1,4.624.515l.274.153a6.007,6.007,0,0,1,2.632,7.5l-10.558,25.92a.255.255,0,0,0,.14.332h0c.005,0,.011,0,.016,0a.252.252,0,0,0,.08.016.254.254,0,0,0,.236-.159l8.916-21.887a6,6,0,0,1,8.481-2.976l.17.1a5.97,5.97,0,0,1,2.839,6.907l-7.719,25.972s0,.007,0,.01l-.079.266a.255.255,0,0,0,.172.317.245.245,0,0,0,.073.011.256.256,0,0,0,.244-.182l5.452-18.324a5.056,5.056,0,0,1,9.838,2.244l-2.621,16.391A22.009,22.009,0,0,1,117.765,166.9a21.954,21.954,0,0,1-10.588-2.77l-12.75-7.051a21.908,21.908,0,0,1-8.266-30.3l8.71-14.764a.246.246,0,0,0,.046-.013.253.253,0,0,0,.116-.157.286.286,0,0,0,0-.1l7.434-12.6.011-.005a.251.251,0,0,0,.109-.2ZM83.96,87.1a8.728,8.728,0,0,1,11.888,2.524l6.167,9.27-7.27,12.323L82.9,91.611A3.33,3.33,0,0,1,83.96,87.1" transform="translate(-81.919 -82.206)" fill="#fff"/>
            </g>
          </g>
        </g>
      </g>
    </g>
  </g>
</svg>
