<svg id="그룹_9868" data-name="그룹 9868" xmlns="http://www.w3.org/2000/svg" xmlns:xlink="http://www.w3.org/1999/xlink" width="75.136" height="79.151" viewBox="0 0 75.136 79.151">
  <defs>
    <clipPath id="clip-path">
      <rect id="사각형_4146" data-name="사각형 4146" width="75.136" height="79.151" fill="#fff"/>
    </clipPath>
  </defs>
  <g id="그룹_9864" data-name="그룹 9864" clip-path="url(#clip-path)">
    <path id="패스_14708" data-name="패스 14708" d="M74.251,43.076c.087-.211,2.111-5.211-.27-8.772-2.068-3.093-6.663-4.034-13.781-2.729a42.133,42.133,0,0,1-7.334.8c-2.8,0-4.538-.52-4.881-1.428-.007-.025-.665-2.5,3.229-7.176.1-.111,9.914-11.283-1.335-22.046A7.493,7.493,0,0,0,45.835,0c-1.367,0-3.091.752-3.548,4.331-.207,1.625-.309,2.9-.391,3.931-.264,3.3-.344,4.3-3.024,8.092-.846.846-10.35,10.463-12.492,18.132-.625,2.137-2.838,7.45-5.979,8.3a2.874,2.874,0,0,0-2.868-2.757H0L4.853,78.167h12.68A2.871,2.871,0,0,0,20.4,75.3v-.253h.313A34.245,34.245,0,0,1,31.5,76.729c.408.1,10.076,2.412,16.619,2.412,0,0,.365.009.995.009,3.872,0,13.255-.293,16.73-2.99.16-.119,3.889-2.965,3.055-6.891a2.674,2.674,0,0,1,.746-2.745c1.948-1.234,5.051-4.756,2.842-9.3a2.812,2.812,0,0,1,.614-3.386,4.442,4.442,0,0,0,1.092-6.206,5.136,5.136,0,0,1,.057-4.561m-56.718,33.6H6.166L1.693,41.525h15.84A1.381,1.381,0,0,1,18.912,42.9v.72c0,.01-.006.018-.006.027V74.3c0,.01.005.017.006.027V75.3a1.379,1.379,0,0,1-1.379,1.376M72.9,42.454a6.56,6.56,0,0,0,.016,5.952l.045.07c1.62,2.218-.551,4.018-.8,4.214l-.061.053a4.322,4.322,0,0,0-.929,5.179c2.148,4.416-2.138,7.227-2.37,7.378a4.15,4.15,0,0,0-1.343,4.334c.622,2.934-2.473,5.31-2.514,5.341-2.551,1.98-9.848,2.685-15.826,2.685-.6,0-.955-.009-.978-.009-6.382,0-16.189-2.347-16.216-2.35a35.584,35.584,0,0,0-11.206-1.746l-.319,0V44.315c4.872-.888,7.308-9.048,7.416-9.42C29.9,27.41,39.867,17.466,39.968,17.366l.084-.1C43,13.1,43.107,11.816,43.381,8.381c.081-1.012.182-2.271.385-3.862.386-3.029,1.652-3.029,2.068-3.029a5.925,5.925,0,0,1,3.049,1.348c10.158,9.721,1.592,19.528,1.2,19.961-4.454,5.343-3.628,8.3-3.511,8.639.617,1.637,2.675,2.432,6.289,2.432a42.873,42.873,0,0,0,7.621-.833c6.35-1.162,10.552-.444,12.251,2.091,1.938,2.891.157,7.325.16,7.325" transform="translate(0 0)" fill="#fff"/>
    <path id="패스_14709" data-name="패스 14709" d="M12,62.124a4.148,4.148,0,1,0,4.147,4.148A4.152,4.152,0,0,0,12,62.124m0,6.8a2.656,2.656,0,1,1,2.657-2.656A2.66,2.66,0,0,1,12,68.928" transform="translate(-1.998 -15.802)" fill="#fff"/>
  </g>
</svg>
