<svg id="그룹_9953" data-name="그룹 9953" xmlns="http://www.w3.org/2000/svg" xmlns:xlink="http://www.w3.org/1999/xlink" width="75.33" height="79.069" viewBox="0 0 75.33 79.069">
  <defs>
    <clipPath id="clip-path">
      <rect id="사각형_4165" data-name="사각형 4165" width="75.33" height="79.069" fill="none" stroke="#f6f7f7" stroke-width="1.6"/>
    </clipPath>
  </defs>
  <g id="그룹_9952" data-name="그룹 9952" clip-path="url(#clip-path)">
    <path id="패스_14739" data-name="패스 14739" d="M23.786,7.544c0,3.558-2.884,8.288-6.437,8.288s-6.442-4.73-6.442-8.288a6.439,6.439,0,0,1,12.879,0Z" transform="translate(39.823 4.042)" fill="none" stroke="#f6f7f7" stroke-miterlimit="10" stroke-width="1.6"/>
    <path id="패스_14740" data-name="패스 14740" d="M17.094,21.6v3.981a4.1,4.1,0,0,1-8.209,0V17.035A12.393,12.393,0,0,1,21.28,4.644h6.893A12.392,12.392,0,0,1,40.564,17.035v8.549a4.1,4.1,0,0,1-8.209,0V21.6" transform="translate(32.44 16.956)" fill="none" stroke="#f6f7f7" stroke-miterlimit="10" stroke-width="1.6"/>
    <path id="패스_14741" data-name="패스 14741" d="M25.911,7.076V49.6A1.31,1.31,0,0,1,24.6,50.908H11.958A1.309,1.309,0,0,1,10.651,49.6V7.076" transform="translate(38.888 25.835)" fill="none" stroke="#f6f7f7" stroke-miterlimit="10" stroke-width="1.6"/>
    <line id="선_138" data-name="선 138" y1="32.014" transform="translate(56.975 44.73)" fill="none" stroke="#f6f7f7" stroke-miterlimit="10" stroke-width="1.6"/>
    <path id="패스_14742" data-name="패스 14742" d="M16.667,7.544c0,3.558-2.884,8.288-6.437,8.288S3.788,11.1,3.788,7.544a6.439,6.439,0,0,1,12.879,0Z" transform="translate(13.83 4.042)" fill="none" stroke="#f6f7f7" stroke-miterlimit="10" stroke-width="1.6"/>
    <line id="선_139" data-name="선 139" y1="31.47" transform="translate(23.765 45.274)" fill="none" stroke="#f6f7f7" stroke-miterlimit="10" stroke-width="1.6"/>
    <path id="패스_14743" data-name="패스 14743" d="M5.109,20.125v31.47H11.03a1.419,1.419,0,0,0,1.419-1.423V6.888H22.867" transform="translate(18.654 25.149)" fill="none" stroke="#f6f7f7" stroke-miterlimit="10" stroke-width="1.6"/>
    <path id="패스_14744" data-name="패스 14744" d="M21.937,74.918H16.016A1.421,1.421,0,0,1,14.6,73.5V31.542a4.264,4.264,0,0,0-2.009-3.614C6.7,24.3.5,18.779.5,8.77V4.449a3.946,3.946,0,1,1,7.893,0V9.114a10.8,10.8,0,0,0,10.8,10.8h8.581c4.433.1,23.028-.14,24.121-.14" transform="translate(1.826 1.826)" fill="none" stroke="#f6f7f7" stroke-miterlimit="10" stroke-width="1.6"/>
  </g>
</svg>
