<svg xmlns="http://www.w3.org/2000/svg" xmlns:xlink="http://www.w3.org/1999/xlink" width="90.233" height="60.692" viewBox="0 0 90.233 60.692">
  <defs>
    <clipPath id="clip-path">
      <rect id="사각형_4147" data-name="사각형 4147" width="90.233" height="60.692" fill="#fff"/>
    </clipPath>
  </defs>
  <g id="그룹_9869" data-name="그룹 9869" transform="translate(0 0)">
    <g id="그룹_9866" data-name="그룹 9866" transform="translate(0 0)" clip-path="url(#clip-path)">
      <path id="패스_14710" data-name="패스 14710" d="M29.924,20.308l-.012-.031ZM26.011,47.05l4.88-8.217c-.356-.128-.708-.255-1.056-.387l-1.114-.414a1.446,1.446,0,0,0-1.62.414l-.557.824-3.383,4.988a1.512,1.512,0,0,0,.012.6,1.4,1.4,0,0,0,.7.955ZM74.94,0H89.259a.975.975,0,0,1,.974.974V40.109a.973.973,0,0,1-.974.974H74.94a.973.973,0,0,1-.974-.974V38.4l-4.435,2.935-.031.019a3.4,3.4,0,0,1,.356,1.025,3.448,3.448,0,0,1-.22,1.891l-.305.723a22.88,22.88,0,0,1-7.382,9.655l-6.856,5.324a3.381,3.381,0,0,1-3.828.24l-6.357-3.766a3.272,3.272,0,0,1-.75.843l-.031.027A3.537,3.537,0,0,1,41.6,58a3.394,3.394,0,0,1-1.264-.433v0L22.9,47.5a3.321,3.321,0,0,1-1.624-2.216,3.313,3.313,0,0,1-.023-1.4,3,3,0,0,1,.143-.507l-5.131-4.567v1.3a.973.973,0,0,1-.974.974H.974A.97.97,0,0,1,0,40.109V.974A.973.973,0,0,1,.974,0H15.293a.975.975,0,0,1,.974.974v.785L23.386,4a3.416,3.416,0,0,1,2.231,4.273l-.05.162L34,9.168l.07.008,16.36,1.945c1.338-.391,2.722-.742,4.207-1.075l10.32-2.3a3.422,3.422,0,0,1,2.332-3.878l6.678-2.1V.974A.975.975,0,0,1,74.94,0M68.282,39.858a.921.921,0,0,1,.174-.147l5.174-3.422a.806.806,0,0,1,.24-.116L65.517,9.6,55.058,11.94c-1.477.333-2.865.688-4.23,1.09l-.008,0-.062.015-.019.008c-.325.093-.646.193-.967.294-1.7.534-3.368,1.145-5.131,1.871L32.1,20.374l.51,1.083a4.831,4.831,0,0,0,5.672,2.629l12.049-3.229a.988.988,0,0,1,.99.305Zm-35.546-.321c.24.1.479.2.715.3.6.267,1.175.553,1.736.87s1.1.653,1.643,1.029l-5.235,8.538-3.9-2.25Zm.541,11.708,4.114,2.378,4.721-7.788-3.72-2.927Zm5.8,3.349L41.3,55.881h.008a1.489,1.489,0,0,0,.541.189,1.462,1.462,0,0,0,.572-.046,1.5,1.5,0,0,0,.518-.251l.023-.015a1.572,1.572,0,0,0,.348-.421l2.738-4.826a1.489,1.489,0,0,0,.166-1.005,1.445,1.445,0,0,0-.537-.866l-2.03-1.6Zm-22.361-18,5.73,5.1,2.977-4.249h0a3.4,3.4,0,0,1,1.771-1.3h0a3.377,3.377,0,0,1,2.2.07l3.376,1.253a23.266,23.266,0,0,1,3.368,1.543,22.6,22.6,0,0,1,2.49,1.62l.015.008a1.021,1.021,0,0,1,.159.124c.135.1.275.209.406.313l7.672,6.036a3.357,3.357,0,0,1,.874,1.017l10.266,7.1,2.734-2.123c.344-.267.677-.537,1-.816L47.089,41.084a.973.973,0,0,1,1.179-1.547l14.918,11.4a20.121,20.121,0,0,0,1.558-1.806q.609-.795,1.141-1.655L52.776,35.8a.974.974,0,0,1,1.3-1.454L66.855,45.735c.236-.479.464-.978.677-1.489l.305-.727a1.422,1.422,0,0,0-.267-1.551L50.263,22.891,38.787,25.965a6.784,6.784,0,0,1-7.934-3.685l-.928-1.972-.031-.073a.971.971,0,0,1,.526-1.268L43.9,13.425c.746-.305,1.473-.592,2.189-.862L33.837,11.105H33.83l-8.839-.769h-.023ZM48.059,50.7a3.461,3.461,0,0,1-.321.766l-1.864,3.283,6.38,3.782a1.48,1.48,0,0,0,.839.213,1.447,1.447,0,0,0,.8-.317l2.517-1.953ZM16.267,31.529,23.761,7.695a1.481,1.481,0,0,0-.1-1.117,1.462,1.462,0,0,0-.858-.719L16.267,3.8ZM14.318,1.949H1.945V39.135H14.318V1.949ZM73.966,29.99V3.8l-6.1,1.918a1.461,1.461,0,0,0-.955,1.837Zm1.949,6.341v2.8h12.37V1.949H75.915V36.331Z" transform="translate(0 -0.001)" fill="#fff" fill-rule="evenodd"/>
    </g>
  </g>
</svg>
