<svg xmlns="http://www.w3.org/2000/svg" width="28.795" height="28.794" viewBox="0 0 28.795 28.794">
  <g id="그룹_9919" data-name="그룹 9919" transform="translate(-1524 -1432)">
    <g id="x" transform="translate(1515.002 1423.001)">
      <path id="패스_14716" data-name="패스 14716" d="M37.264,9.527a1.8,1.8,0,0,1,0,2.548l-25.19,25.19a1.8,1.8,0,0,1-2.548-2.548l25.19-25.19a1.8,1.8,0,0,1,2.548,0Z" transform="translate(0)" fill="#f6f7f7" fill-rule="evenodd"/>
      <path id="패스_14717" data-name="패스 14717" d="M9.527,9.527a1.8,1.8,0,0,0,0,2.548l25.19,25.19a1.8,1.8,0,0,0,2.548-2.548L12.075,9.527a1.8,1.8,0,0,0-2.548,0Z" transform="translate(0)" fill="#f6f7f7" fill-rule="evenodd"/>
    </g>
  </g>
</svg>
