<svg id="그룹_7" data-name="그룹 7" xmlns="http://www.w3.org/2000/svg" xmlns:xlink="http://www.w3.org/1999/xlink" width="110.409" height="85.506" viewBox="0 0 110.409 85.506">
  <defs>
    <clipPath id="clip-path">
      <rect id="사각형_12" data-name="사각형 12" width="110.409" height="85.506" fill="none"/>
    </clipPath>
    <clipPath id="clip-path-3">
      <rect id="사각형_4" data-name="사각형 4" width="107.204" height="62.295" fill="none"/>
    </clipPath>
  </defs>
  <g id="그룹_6" data-name="그룹 6" clip-path="url(#clip-path)">
    <g id="그룹_5" data-name="그룹 5" transform="translate(0 0)">
      <g id="그룹_4" data-name="그룹 4" clip-path="url(#clip-path)">
        <path id="패스_1" data-name="패스 1" d="M78.87,67.2H95.341c20.6,0,14.05-24.385,4.155-24.385C101.144,22.1,87.674,7.2,74.49,3.153,58.8-1.669,36.505,1.472,33.64,26.671A17.59,17.59,0,0,0,11.512,43.229C-1.7,43.239-2.4,67.208,10.835,67.2H78.87Z" transform="translate(0.144 0.143)" fill="#f2f5fa"/>
        <path id="패스_2" data-name="패스 2" d="M70.132,2.693c-13.38-2.23-25.48,7.375-28.509,28.328a3.826,3.826,0,0,1-5.041,3.114c-6.794-2.387-19.536-4.434-26.66,9.813,0,0,2.029-13.528,11.05-16.241s11.25-.484,11.25-.484S36.068,5.47,53.1,2.409s17.032.284,17.032.284" transform="translate(1.141 0.128)" fill="#fff"/>
        <g id="그룹_3" data-name="그룹 3" transform="translate(1.809 5.052)" style="mix-blend-mode: darken;isolation: isolate">
          <g id="그룹_2" data-name="그룹 2">
            <g id="그룹_1" data-name="그룹 1" clip-path="url(#clip-path-3)">
              <path id="패스_3" data-name="패스 3" d="M99.988,42.475c.142.209-1.026-.033-1.026-.033s.928-12.841-2.23-20.07C92.5,12.676,84.348,6.554,77.777,4.531c10.014,6.676,16.7,18.9,15.134,36.437A4.456,4.456,0,0,0,95.5,45.506a13.7,13.7,0,0,1,1.31.649A6.569,6.569,0,0,1,96.1,57.9,19.7,19.7,0,0,1,88.6,59.166H4.1A10.8,10.8,0,0,1,1.622,58.9c1.037,4.371,4.07,7.928,9.165,7.928H95.293c20.226,0,14.283-23.5,4.694-24.352" transform="translate(-1.622 -4.531)" fill="#d1e5fd"/>
            </g>
          </g>
        </g>
        <rect id="사각형_5" data-name="사각형 5" width="25.473" height="23.243" transform="translate(50.355 41.709)" fill="#d1e5fd"/>
        <rect id="사각형_6" data-name="사각형 6" width="25.473" height="23.243" transform="translate(50.355 41.709)" fill="none" stroke="#d1e5fd" stroke-linecap="round" stroke-linejoin="round" stroke-width="2.5"/>
        <line id="선_1" data-name="선 1" x2="2.706" transform="translate(72.484 51.658)" fill="none" stroke="#d1e5fd" stroke-miterlimit="10" stroke-width="3"/>
        <line id="선_2" data-name="선 2" x2="2.706" transform="translate(72.484 43.372)" fill="none" stroke="#d1e5fd" stroke-miterlimit="10" stroke-width="3"/>
        <line id="선_3" data-name="선 3" x2="2.706" transform="translate(72.484 59.944)" fill="none" stroke="#d1e5fd" stroke-miterlimit="10" stroke-width="3"/>
        <rect id="사각형_7" data-name="사각형 7" width="26.588" height="26.588" transform="translate(45.895 38.364)" fill="#fff"/>
        <rect id="사각형_8" data-name="사각형 8" width="26.588" height="26.588" transform="translate(45.895 38.364)" fill="none" stroke="#47458e" stroke-linecap="round" stroke-linejoin="round" stroke-width="2.5"/>
        <rect id="사각형_9" data-name="사각형 9" width="15.662" height="15.664" transform="translate(51.358 43.826)" fill="#d1e5fd"/>
        <rect id="사각형_10" data-name="사각형 10" width="15.662" height="15.664" transform="translate(51.358 43.826)" fill="none" stroke="#47458e" stroke-linecap="round" stroke-linejoin="round" stroke-width="2.5"/>
        <line id="선_4" data-name="선 4" y2="19.16" transform="translate(59.189 64.952)" fill="none" stroke="#47458e" stroke-linecap="round" stroke-linejoin="round" stroke-width="2.5"/>
        <path id="패스_4" data-name="패스 4" d="M60.5,58.253v12.03H83.3v7.13" transform="translate(6.957 6.699)" fill="none" stroke="#47458e" stroke-linecap="round" stroke-linejoin="round" stroke-width="2.5"/>
        <path id="패스_5" data-name="패스 5" d="M47.953,58.253v12.03H25.461v7.13" transform="translate(2.928 6.699)" fill="none" stroke="#47458e" stroke-linecap="round" stroke-linejoin="round" stroke-width="2.5"/>
        <line id="선_5" data-name="선 5" y1="4.926" transform="translate(59.191 33.438)" fill="none" stroke="#47458e" stroke-miterlimit="10" stroke-width="3"/>
        <line id="선_6" data-name="선 6" y1="4.926" transform="translate(50.905 33.438)" fill="none" stroke="#47458e" stroke-miterlimit="10" stroke-width="3"/>
        <line id="선_7" data-name="선 7" y1="4.926" transform="translate(67.476 33.438)" fill="none" stroke="#47458e" stroke-miterlimit="10" stroke-width="3"/>
        <line id="선_8" data-name="선 8" x2="4.937" transform="translate(40.958 51.658)" fill="none" stroke="#47458e" stroke-miterlimit="10" stroke-width="3"/>
        <line id="선_9" data-name="선 9" x2="4.937" transform="translate(40.958 43.372)" fill="none" stroke="#47458e" stroke-miterlimit="10" stroke-width="3"/>
        <line id="선_10" data-name="선 10" x2="4.937" transform="translate(40.958 59.944)" fill="none" stroke="#47458e" stroke-miterlimit="10" stroke-width="3"/>
        <line id="선_11" data-name="선 11" x2="3.344" transform="translate(82.361 26.814)" fill="none" stroke="#47458e" stroke-miterlimit="10" stroke-width="3"/>
        <line id="선_12" data-name="선 12" x2="3.344" transform="translate(65.802 26.814)" fill="none" stroke="#47458e" stroke-miterlimit="10" stroke-width="3"/>
        <line id="선_13" data-name="선 13" x2="3.344" transform="translate(57.517 26.814)" fill="none" stroke="#47458e" stroke-miterlimit="10" stroke-width="3"/>
        <line id="선_14" data-name="선 14" x2="3.344" transform="translate(49.233 26.814)" fill="none" stroke="#47458e" stroke-miterlimit="10" stroke-width="3"/>
        <line id="선_15" data-name="선 15" x2="3.344" transform="translate(40.958 26.814)" fill="none" stroke="#47458e" stroke-miterlimit="10" stroke-width="3"/>
        <line id="선_16" data-name="선 16" x2="3.344" transform="translate(74.077 26.814)" fill="none" stroke="#47458e" stroke-miterlimit="10" stroke-width="3"/>
        <line id="선_17" data-name="선 17" x2="3.344" transform="translate(90.646 26.814)" fill="none" stroke="#47458e" stroke-miterlimit="10" stroke-width="3"/>
        <line id="선_18" data-name="선 18" x2="3.344" transform="translate(82.361 35.1)" fill="none" stroke="#47458e" stroke-miterlimit="10" stroke-width="3"/>
        <line id="선_19" data-name="선 19" x2="3.344" transform="translate(32.674 35.1)" fill="none" stroke="#47458e" stroke-miterlimit="10" stroke-width="3"/>
        <line id="선_20" data-name="선 20" x2="3.344" transform="translate(24.398 35.1)" fill="none" stroke="#47458e" stroke-miterlimit="10" stroke-width="3"/>
        <line id="선_21" data-name="선 21" x2="3.344" transform="translate(90.646 35.1)" fill="none" stroke="#47458e" stroke-miterlimit="10" stroke-width="3"/>
        <line id="선_22" data-name="선 22" x2="3.344" transform="translate(82.361 43.372)" fill="none" stroke="#47458e" stroke-miterlimit="10" stroke-width="3"/>
        <line id="선_23" data-name="선 23" x2="3.344" transform="translate(32.674 43.372)" fill="none" stroke="#47458e" stroke-miterlimit="10" stroke-width="3"/>
        <line id="선_24" data-name="선 24" x2="3.344" transform="translate(90.646 43.372)" fill="none" stroke="#47458e" stroke-miterlimit="10" stroke-width="3"/>
        <line id="선_25" data-name="선 25" x2="3.344" transform="translate(82.361 51.658)" fill="none" stroke="#47458e" stroke-miterlimit="10" stroke-width="3"/>
        <line id="선_26" data-name="선 26" x2="3.344" transform="translate(32.674 51.658)" fill="none" stroke="#47458e" stroke-miterlimit="10" stroke-width="3"/>
        <line id="선_27" data-name="선 27" x2="3.344" transform="translate(98.93 51.658)" fill="none" stroke="#47458e" stroke-miterlimit="10" stroke-width="3"/>
        <line id="선_28" data-name="선 28" x2="3.344" transform="translate(90.646 51.658)" fill="none" stroke="#47458e" stroke-miterlimit="10" stroke-width="3"/>
        <line id="선_29" data-name="선 29" x2="3.344" transform="translate(82.361 59.944)" fill="none" stroke="#47458e" stroke-miterlimit="10" stroke-width="3"/>
        <line id="선_30" data-name="선 30" x2="3.344" transform="translate(32.674 59.944)" fill="none" stroke="#47458e" stroke-miterlimit="10" stroke-width="3"/>
        <line id="선_31" data-name="선 31" x2="3.344" transform="translate(98.93 59.944)" fill="none" stroke="#47458e" stroke-miterlimit="10" stroke-width="3"/>
        <line id="선_32" data-name="선 32" x2="3.344" transform="translate(90.646 59.944)" fill="none" stroke="#47458e" stroke-miterlimit="10" stroke-width="3"/>
        <line id="선_33" data-name="선 33" x2="3.344" transform="translate(82.361 59.944)" fill="none" stroke="#47458e" stroke-miterlimit="10" stroke-width="3"/>
        <line id="선_34" data-name="선 34" x2="3.344" transform="translate(82.361 18.528)" fill="none" stroke="#47458e" stroke-miterlimit="10" stroke-width="3"/>
        <line id="선_35" data-name="선 35" x2="3.344" transform="translate(65.802 18.528)" fill="none" stroke="#47458e" stroke-miterlimit="10" stroke-width="3"/>
        <line id="선_36" data-name="선 36" x2="3.344" transform="translate(57.517 18.528)" fill="none" stroke="#47458e" stroke-miterlimit="10" stroke-width="3"/>
        <line id="선_37" data-name="선 37" x2="3.344" transform="translate(49.233 18.528)" fill="none" stroke="#47458e" stroke-miterlimit="10" stroke-width="3"/>
        <line id="선_38" data-name="선 38" x2="3.344" transform="translate(40.958 18.528)" fill="none" stroke="#47458e" stroke-miterlimit="10" stroke-width="3"/>
        <line id="선_39" data-name="선 39" x2="3.344" transform="translate(74.077 18.528)" fill="none" stroke="#47458e" stroke-miterlimit="10" stroke-width="3"/>
        <line id="선_40" data-name="선 40" x2="3.344" transform="translate(82.361 26.814)" fill="none" stroke="#47458e" stroke-miterlimit="10" stroke-width="3"/>
        <line id="선_41" data-name="선 41" x2="3.344" transform="translate(65.802 26.814)" fill="none" stroke="#47458e" stroke-miterlimit="10" stroke-width="3"/>
        <line id="선_42" data-name="선 42" x2="3.344" transform="translate(57.517 26.814)" fill="none" stroke="#47458e" stroke-miterlimit="10" stroke-width="3"/>
        <line id="선_43" data-name="선 43" x2="3.344" transform="translate(49.233 26.814)" fill="none" stroke="#47458e" stroke-miterlimit="10" stroke-width="3"/>
        <line id="선_44" data-name="선 44" x2="3.344" transform="translate(40.958 26.814)" fill="none" stroke="#47458e" stroke-miterlimit="10" stroke-width="3"/>
        <line id="선_45" data-name="선 45" x2="3.344" transform="translate(40.958 35.1)" fill="none" stroke="#47458e" stroke-miterlimit="10" stroke-width="3"/>
        <line id="선_46" data-name="선 46" x2="3.344" transform="translate(74.077 26.814)" fill="none" stroke="#47458e" stroke-miterlimit="10" stroke-width="3"/>
        <line id="선_47" data-name="선 47" x2="3.344" transform="translate(74.077 35.1)" fill="none" stroke="#47458e" stroke-miterlimit="10" stroke-width="3"/>
        <line id="선_48" data-name="선 48" x2="3.344" transform="translate(90.646 26.814)" fill="none" stroke="#47458e" stroke-miterlimit="10" stroke-width="3"/>
        <line id="선_49" data-name="선 49" x2="3.344" transform="translate(65.802 10.243)" fill="none" stroke="#47458e" stroke-miterlimit="10" stroke-width="3"/>
        <line id="선_50" data-name="선 50" x2="3.344" transform="translate(57.517 10.243)" fill="none" stroke="#47458e" stroke-miterlimit="10" stroke-width="3"/>
        <line id="선_51" data-name="선 51" x2="3.344" transform="translate(49.233 10.243)" fill="none" stroke="#47458e" stroke-miterlimit="10" stroke-width="3"/>
        <line id="선_52" data-name="선 52" x2="3.344" transform="translate(74.077 10.243)" fill="none" stroke="#47458e" stroke-miterlimit="10" stroke-width="3"/>
        <line id="선_53" data-name="선 53" x2="3.344" transform="translate(82.361 18.528)" fill="none" stroke="#47458e" stroke-miterlimit="10" stroke-width="3"/>
        <line id="선_54" data-name="선 54" x2="3.344" transform="translate(65.802 18.528)" fill="none" stroke="#47458e" stroke-miterlimit="10" stroke-width="3"/>
        <line id="선_55" data-name="선 55" x2="3.344" transform="translate(57.517 18.528)" fill="none" stroke="#47458e" stroke-miterlimit="10" stroke-width="3"/>
        <line id="선_56" data-name="선 56" x2="3.344" transform="translate(49.233 18.528)" fill="none" stroke="#47458e" stroke-miterlimit="10" stroke-width="3"/>
        <line id="선_57" data-name="선 57" x2="3.344" transform="translate(40.958 18.528)" fill="none" stroke="#47458e" stroke-miterlimit="10" stroke-width="3"/>
        <line id="선_58" data-name="선 58" x2="3.344" transform="translate(74.077 18.528)" fill="none" stroke="#47458e" stroke-miterlimit="10" stroke-width="3"/>
        <line id="선_59" data-name="선 59" x2="3.344" transform="translate(65.802 10.243)" fill="none" stroke="#47458e" stroke-miterlimit="10" stroke-width="3"/>
        <line id="선_60" data-name="선 60" x2="3.344" transform="translate(57.517 10.243)" fill="none" stroke="#47458e" stroke-miterlimit="10" stroke-width="3"/>
        <line id="선_61" data-name="선 61" x2="3.344" transform="translate(49.233 10.243)" fill="none" stroke="#47458e" stroke-miterlimit="10" stroke-width="3"/>
        <line id="선_62" data-name="선 62" x2="3.344" transform="translate(74.077 10.243)" fill="none" stroke="#47458e" stroke-miterlimit="10" stroke-width="3"/>
        <line id="선_63" data-name="선 63" x2="3.344" transform="translate(24.398 43.372)" fill="none" stroke="#47458e" stroke-miterlimit="10" stroke-width="3"/>
        <line id="선_64" data-name="선 64" x2="3.344" transform="translate(16.114 43.372)" fill="none" stroke="#47458e" stroke-miterlimit="10" stroke-width="3"/>
        <line id="선_65" data-name="선 65" x2="3.344" transform="translate(24.398 51.658)" fill="none" stroke="#47458e" stroke-miterlimit="10" stroke-width="3"/>
        <line id="선_66" data-name="선 66" x2="3.344" transform="translate(16.114 51.658)" fill="none" stroke="#47458e" stroke-miterlimit="10" stroke-width="3"/>
        <line id="선_67" data-name="선 67" x2="3.344" transform="translate(7.83 51.658)" fill="none" stroke="#47458e" stroke-miterlimit="10" stroke-width="3"/>
        <line id="선_68" data-name="선 68" x2="3.344" transform="translate(24.398 59.944)" fill="none" stroke="#47458e" stroke-miterlimit="10" stroke-width="3"/>
        <line id="선_69" data-name="선 69" x2="3.344" transform="translate(16.114 59.944)" fill="none" stroke="#47458e" stroke-miterlimit="10" stroke-width="3"/>
        <line id="선_70" data-name="선 70" x2="3.344" transform="translate(7.83 59.944)" fill="none" stroke="#47458e" stroke-miterlimit="10" stroke-width="3"/>
        <path id="패스_6" data-name="패스 6" d="M78.87,67.2H95.341c20.6,0,14.05-24.385,4.155-24.385C101.144,22.1,87.674,7.2,74.49,3.153,58.8-1.669,36.505,1.472,33.64,26.671A17.59,17.59,0,0,0,11.512,43.229C-1.7,43.239-2.4,67.208,10.835,67.2H39.326" transform="translate(0.144 0.143)" fill="none" stroke="#47458e" stroke-linecap="round" stroke-linejoin="round" stroke-width="2.5"/>
      </g>
    </g>
  </g>
</svg>
