<svg id="그룹_7672" data-name="그룹 7672" xmlns="http://www.w3.org/2000/svg" xmlns:xlink="http://www.w3.org/1999/xlink" width="69.609" height="51.833" viewBox="0 0 69.609 51.833">
  <defs>
    <clipPath id="clip-path">
      <rect id="사각형_3385" data-name="사각형 3385" width="69.609" height="51.833" fill="none"/>
    </clipPath>
  </defs>
  <g id="그룹_7671" data-name="그룹 7671" transform="translate(0 0)" clip-path="url(#clip-path)">
    <path id="패스_2347" data-name="패스 2347" d="M54.785,51.833H28.705a5.667,5.667,0,0,1-5.661-5.661V5.661A5.667,5.667,0,0,1,28.705,0h26.08a5.667,5.667,0,0,1,5.661,5.661v40.51a5.667,5.667,0,0,1-5.661,5.661M28.705,3.494a2.17,2.17,0,0,0-2.168,2.167v40.51a2.17,2.17,0,0,0,2.168,2.167h26.08a2.169,2.169,0,0,0,2.166-2.167V5.661a2.169,2.169,0,0,0-2.166-2.167Z" transform="translate(-6.94 0)" fill="#9b9b9b"/>
    <path id="패스_2348" data-name="패스 2348" d="M54.193,16.349H36.121a1.747,1.747,0,1,1,0-3.494H54.193a1.747,1.747,0,0,1,0,3.494" transform="translate(-10.353 -3.872)" fill="#9b9b9b"/>
    <path id="패스_2349" data-name="패스 2349" d="M54.193,26.53H36.121a1.747,1.747,0,1,1,0-3.494H54.193a1.747,1.747,0,0,1,0,3.494" transform="translate(-10.353 -6.938)" fill="#9b9b9b"/>
    <path id="패스_2350" data-name="패스 2350" d="M54.193,36.709H36.121a1.747,1.747,0,1,1,0-3.494H54.193a1.747,1.747,0,0,1,0,3.494" transform="translate(-10.353 -10.003)" fill="#9b9b9b"/>
    <path id="패스_2351" data-name="패스 2351" d="M54.193,46.889H36.121a1.747,1.747,0,1,1,0-3.494H54.193a1.747,1.747,0,0,1,0,3.494" transform="translate(-10.353 -13.069)" fill="#9b9b9b"/>
    <path id="패스_2352" data-name="패스 2352" d="M42.749,68.378A1.747,1.747,0,0,1,41,66.631V56.683a1.747,1.747,0,0,1,1.747-1.747h8.807A1.747,1.747,0,0,1,53.3,56.683v4.974a1.747,1.747,0,1,1-3.494,0V58.43H44.5v8.2a1.747,1.747,0,0,1-1.747,1.747" transform="translate(-12.349 -16.545)" fill="#9b9b9b"/>
    <path id="패스_2353" data-name="패스 2353" d="M88.555,70.272a1.747,1.747,0,0,1-1.747-1.747V62.972a1.747,1.747,0,0,1,3.494,0v5.553a1.747,1.747,0,0,1-1.747,1.747" transform="translate(-26.144 -18.439)" fill="#9b9b9b"/>
    <path id="패스_2354" data-name="패스 2354" d="M86.205,56.7c-3.97,0-7.2-3.563-7.2-7.943,0-2.185,1.171-5.663,2.267-8.188,2.595-5.979,4.173-5.979,4.932-5.979,1.175,0,2.81.682,5.046,6,.993,2.361,2.153,5.917,2.153,8.171,0,4.38-3.229,7.943-7.2,7.943m.059-18.167c-1.373,1.979-3.765,7.7-3.765,10.224,0,2.454,1.662,4.449,3.705,4.449s3.705-2,3.705-4.449c0-2.484-2.257-8.292-3.646-10.224" transform="translate(-23.794 -10.416)" fill="#9b9b9b"/>
    <path id="패스_2355" data-name="패스 2355" d="M9.549,70.272A1.747,1.747,0,0,1,7.8,68.525V62.972a1.747,1.747,0,1,1,3.494,0v5.553a1.747,1.747,0,0,1-1.747,1.747" transform="translate(-2.35 -18.439)" fill="#9b9b9b"/>
    <path id="패스_2356" data-name="패스 2356" d="M7.2,56.7c-3.97,0-7.2-3.563-7.2-7.943,0-2.186,1.171-5.663,2.266-8.188C4.86,34.585,6.44,34.585,7.2,34.585c1.175,0,2.81.683,5.046,6,.993,2.361,2.153,5.917,2.153,8.171,0,4.38-3.229,7.943-7.2,7.943m.059-18.167c-1.372,1.978-3.764,7.7-3.764,10.225,0,2.454,1.662,4.449,3.705,4.449s3.705-2,3.705-4.449c0-2.485-2.258-8.293-3.646-10.225" transform="translate(0 -10.416)" fill="#9b9b9b"/>
  </g>
</svg>
