<svg id="그룹_7669" data-name="그룹 7669" xmlns="http://www.w3.org/2000/svg" xmlns:xlink="http://www.w3.org/1999/xlink" width="69.227" height="40.602" viewBox="0 0 69.227 40.602">
  <defs>
    <clipPath id="clip-path">
      <rect id="사각형_3383" data-name="사각형 3383" width="69.227" height="40.602" fill="none"/>
    </clipPath>
  </defs>
  <g id="그룹_7668" data-name="그룹 7668" clip-path="url(#clip-path)">
    <path id="패스_2344" data-name="패스 2344" d="M79.71,62.715a1.43,1.43,0,0,0-1.406-.169l-21.13,8.032L35.943,62.547a1.553,1.553,0,0,0-1.442.165,1.517,1.517,0,0,0-.7,1.232,1.085,1.085,0,0,0-.006.11V74.341c0,2.339,2.511,4.306,7.52,5.77a56.821,56.821,0,0,0,15.858,2.047,56.629,56.629,0,0,0,15.789-2.047c4.978-1.465,7.462-3.431,7.462-5.77V64.053c0-.048,0-.072,0-.122a1.446,1.446,0,0,0-.712-1.216m-7.978,14.5A53.2,53.2,0,0,1,57.174,79.03,54.635,54.635,0,0,1,42.5,77.219c-4.388-1.274-5.529-2.571-5.533-2.877V66.263l19.572,7.46a1.871,1.871,0,0,0,1.131,0l19.664-7.46v8.066c-.073.319-1.173,1.616-5.605,2.89" transform="translate(-22.493 -41.558)" fill="#9b9b9b"/>
    <path id="패스_2345" data-name="패스 2345" d="M68.235,12.312,35.174.085a1.851,1.851,0,0,0-1.111,0L1.122,12.312A1.548,1.548,0,0,0,0,13.769a1.5,1.5,0,0,0,1.122,1.46L34.063,27.49a3.743,3.743,0,0,0,.617.079,2.446,2.446,0,0,0,.493-.079l26.06-9.623V28.374a2.461,2.461,0,0,0-1.451,2.269,2.723,2.723,0,0,0,.733,1.852l-.328,6.15,4.142-2.333-.237-3.86a2.99,2.99,0,0,0,.759-1.809,2.546,2.546,0,0,0-1.727-2.383V17.145l5.111-1.916a1.546,1.546,0,0,0,.992-1.46,1.607,1.607,0,0,0-.992-1.457M34.68,24.362,6.142,13.769,34.68,3.226,63.218,13.769Z" transform="translate(0)" fill="#9b9b9b"/>
  </g>
</svg>
