<svg xmlns="http://www.w3.org/2000/svg" xmlns:xlink="http://www.w3.org/1999/xlink" width="55" height="54.143" viewBox="0 0 55 54.143">
  <defs>
    <clipPath id="clip-path">
      <rect id="사각형_3380" data-name="사각형 3380" width="55" height="54.143" fill="none"/>
    </clipPath>
  </defs>
  <g id="그룹_7663" data-name="그룹 7663" clip-path="url(#clip-path)">
    <path id="패스_2317" data-name="패스 2317" d="M58.858,65.039a1.7,1.7,0,0,1-1.7-1.7V58.655a1.7,1.7,0,1,1,3.392,0v4.688a1.7,1.7,0,0,1-1.7,1.7" transform="translate(-10.936 -10.897)" fill="#9b9b9b"/>
    <path id="패스_2318" data-name="패스 2318" d="M61.645,48.841,58.805,50l-3.411-1.156V18.287h6.251Z" transform="translate(-10.597 -3.499)" fill="#fff"/>
    <path id="패스_2319" data-name="패스 2319" d="M58.567,50.768a1.022,1.022,0,0,1-.325-.053l-3.41-1.156a1.01,1.01,0,0,1-.687-.957V18.048a1.011,1.011,0,0,1,1.011-1.011h6.251a1.011,1.011,0,0,1,1.011,1.011V48.6a1.013,1.013,0,0,1-.63.937l-2.84,1.156a1.017,1.017,0,0,1-.381.074m-2.4-2.892,2.368.8,1.862-.758V19.059H56.167Z" transform="translate(-10.358 -3.259)" fill="#9b9b9b"/>
    <path id="패스_2320" data-name="패스 2320" d="M61.6,56.158l-2.309,4.977H57.777l-2.308-4.977Z" transform="translate(-10.612 -10.744)" fill="#fff"/>
    <path id="패스_2321" data-name="패스 2321" d="M59.053,61.907H57.539a1.01,1.01,0,0,1-.917-.585l-2.309-4.977a1.011,1.011,0,0,1,.917-1.436h6.131a1.01,1.01,0,0,1,.917,1.436L59.97,61.322a1.01,1.01,0,0,1-.917.585m-.869-2.022h.222l1.372-2.955H56.813Z" transform="translate(-10.373 -10.505)" fill="#9b9b9b"/>
    <path id="패스_2322" data-name="패스 2322" d="M64.129,29a1.01,1.01,0,0,1-1.011-1.011V22.149H54.012a1.011,1.011,0,1,1,0-2.022H64.129a1.011,1.011,0,0,1,1.011,1.011V27.99A1.011,1.011,0,0,1,64.129,29" transform="translate(-10.139 -3.851)" fill="#9b9b9b"/>
    <path id="패스_2323" data-name="패스 2323" d="M6.281,63.417h0A5.031,5.031,0,0,1,1.25,58.386V56.223H30.083v1.061L12.1,62.68Z" transform="translate(-0.239 -10.756)" fill="#fff"/>
    <path id="패스_2324" data-name="패스 2324" d="M6.042,64.189A6.048,6.048,0,0,1,0,58.148V55.984a1.011,1.011,0,0,1,1.011-1.011H29.843a1.011,1.011,0,0,1,1.011,1.011v1.061a1.011,1.011,0,0,1-.72.969l-17.984,5.4a1.106,1.106,0,0,1-.163.035l-5.819.738a1.115,1.115,0,0,1-.127.007m-4.02-7.194v1.153a4.025,4.025,0,0,0,3.959,4.019l5.669-.719,14.844-4.453Z" transform="translate(0 -10.517)" fill="#9b9b9b"/>
    <path id="패스_2325" data-name="패스 2325" d="M40.972,47.871A5.031,5.031,0,0,1,35.94,52.9H7.056a5.03,5.03,0,0,0,5.03-5.031l.053-41.588a5.031,5.031,0,0,1,5.03-5.032l5.819.739L40.971,7.384Z" transform="translate(-1.35 -0.239)" fill="#fff"/>
    <path id="패스_2326" data-name="패스 2326" d="M35.7,53.672H6.817a1.011,1.011,0,0,1,0-2.022,4.024,4.024,0,0,0,4.019-4.02l.052-41.589A6.049,6.049,0,0,1,16.93,0a.951.951,0,0,1,.128.008l5.819.739a.923.923,0,0,1,.163.035L41.022,6.176a1.011,1.011,0,0,1,.721.968V47.63A6.049,6.049,0,0,1,35.7,53.672M11.323,51.65H35.7a4.025,4.025,0,0,0,4.021-4.02V7.9L22.539,2.741l-5.67-.719A4.025,4.025,0,0,0,12.91,6.043l-.052,41.589a6.016,6.016,0,0,1-1.535,4.018" transform="translate(-1.111 0)" fill="#9b9b9b"/>
    <path id="패스_2327" data-name="패스 2327" d="M24.177,8.266V6.282A5.031,5.031,0,0,0,19.145,1.25H43.75a5.032,5.032,0,0,1,5.032,5.032V8.266Z" transform="translate(-3.663 -0.239)" fill="#fff"/>
    <path id="패스_2328" data-name="패스 2328" d="M48.543,9.038H23.938a1.011,1.011,0,0,1-1.011-1.011V6.043a4.026,4.026,0,0,0-4.021-4.022,1.011,1.011,0,1,1,0-2.022H43.511a6.05,6.05,0,0,1,6.043,6.043V8.027a1.011,1.011,0,0,1-1.011,1.011M24.948,7.016H47.532V6.043a4.026,4.026,0,0,0-4.021-4.022h-20.1a6.018,6.018,0,0,1,1.536,4.022Z" transform="translate(-3.423 0)" fill="#9b9b9b"/>
    <rect id="사각형_3379" data-name="사각형 3379" width="21.661" height="36.905" transform="translate(15.235 10.879)" fill="#f0f0f0"/>
    <path id="패스_2329" data-name="패스 2329" d="M34.485,49.408v9.151l-4.029-2.571-4.029,2.571V49.408Z" transform="translate(-5.056 -9.452)" fill="#fff"/>
    <path id="패스_2330" data-name="패스 2330" d="M34.246,59.332a1.008,1.008,0,0,1-.543-.159l-3.485-2.225-3.485,2.225a1.011,1.011,0,0,1-1.554-.852V49.169a1.011,1.011,0,0,1,1.011-1.011h8.057a1.011,1.011,0,0,1,1.011,1.011v9.152a1.009,1.009,0,0,1-.525.886,1,1,0,0,1-.486.125m-4.029-4.593a1.007,1.007,0,0,1,.543.159l2.475,1.579v-6.3H27.2v6.3L29.674,54.9a1.007,1.007,0,0,1,.543-.159" transform="translate(-4.817 -9.213)" fill="#9b9b9b"/>
    <path id="패스_2331" data-name="패스 2331" d="M29.718,36.252l2.095,2.095h2.963v2.961l2.095,2.1L34.775,45.5V48.46H31.812l-2.095,2.095L27.623,48.46H24.662V45.5L22.567,43.4l2.095-2.1V38.347h2.961Z" transform="translate(-4.317 -6.935)" fill="#fff"/>
    <path id="패스_2332" data-name="패스 2332" d="M29.478,51.326a1.008,1.008,0,0,1-.715-.3l-1.8-1.8H24.422a1.011,1.011,0,0,1-1.011-1.011V45.678l-1.8-1.8a1.011,1.011,0,0,1,0-1.43l1.8-1.8V38.107A1.011,1.011,0,0,1,24.422,37.1h2.543l1.8-1.8a1.011,1.011,0,0,1,1.43,0l1.8,1.8h2.545a1.011,1.011,0,0,1,1.011,1.011v2.543l1.8,1.8a1.011,1.011,0,0,1,0,1.43l-1.8,1.8v2.543a1.011,1.011,0,0,1-1.011,1.011H31.991l-1.8,1.8a1.008,1.008,0,0,1-.715.3M25.433,47.21h1.951a1.013,1.013,0,0,1,.715.3l1.38,1.38,1.38-1.38a1.011,1.011,0,0,1,.715-.3h1.952V45.259a1.013,1.013,0,0,1,.3-.715l1.38-1.38-1.38-1.381a1.012,1.012,0,0,1-.3-.715V39.118H31.573a1.011,1.011,0,0,1-.715-.3l-1.38-1.38-1.38,1.38a1.013,1.013,0,0,1-.715.3H25.433v1.951a1.009,1.009,0,0,1-.3.715l-1.38,1.381,1.38,1.38a1.013,1.013,0,0,1,.3.715Z" transform="translate(-4.078 -6.696)" fill="#9b9b9b"/>
    <path id="패스_2333" data-name="패스 2333" d="M35.769,17.532H25.876a1.011,1.011,0,1,1,0-2.022h9.894a1.011,1.011,0,0,1,0,2.022" transform="translate(-4.757 -2.967)" fill="#9b9b9b"/>
    <path id="패스_2334" data-name="패스 2334" d="M38.628,24.145H21.244a1.011,1.011,0,0,1,0-2.022H38.628a1.011,1.011,0,1,1,0,2.022" transform="translate(-3.871 -4.232)" fill="#9b9b9b"/>
    <path id="패스_2335" data-name="패스 2335" d="M38.628,31.088H21.244a1.011,1.011,0,0,1,0-2.022H38.628a1.011,1.011,0,1,1,0,2.022" transform="translate(-3.871 -5.561)" fill="#9b9b9b"/>
  </g>
</svg>
