<svg xmlns="http://www.w3.org/2000/svg" xmlns:xlink="http://www.w3.org/1999/xlink" width="87.094" height="84.7" viewBox="0 0 87.094 84.7">
  <defs>
    <clipPath id="clip-path">
      <rect id="사각형_13" data-name="사각형 13" width="87.094" height="84.7" transform="translate(0 0)" fill="none"/>
    </clipPath>
  </defs>
  <g id="그룹_8" data-name="그룹 8" transform="translate(0 0)" clip-path="url(#clip-path)">
    <path id="패스_7" data-name="패스 7" d="M17.712,71.95A5.016,5.016,0,1,1,12.7,76.965a5.015,5.015,0,0,1,5.016-5.015" fill="#d3e6fe"/>
    <path id="패스_8" data-name="패스 8" d="M17.712,71.95A5.016,5.016,0,1,1,12.7,76.965,5.015,5.015,0,0,1,17.712,71.95Z" fill="none" stroke="#d3e6fe" stroke-linecap="round" stroke-linejoin="round" stroke-width="2.5"/>
    <path id="패스_9" data-name="패스 9" d="M12.43,39.288a7.18,7.18,0,1,1-7.18,7.18,7.18,7.18,0,0,1,7.18-7.18" fill="#d3e6fe"/>
    <circle id="타원_5" data-name="타원 5" cx="7.18" cy="7.18" r="7.18" transform="translate(5.25 39.288)" fill="none" stroke="#d3e6fe" stroke-linecap="round" stroke-linejoin="round" stroke-width="2.5"/>
    <path id="패스_10" data-name="패스 10" d="M25.32,6.25A7.719,7.719,0,1,1,17.6,13.974,7.717,7.717,0,0,1,25.32,6.25" fill="#d3e6fe"/>
    <path id="패스_11" data-name="패스 11" d="M25.32,6.25A7.719,7.719,0,1,1,17.6,13.974,7.717,7.717,0,0,1,25.32,6.25Z" fill="none" stroke="#d3e6fe" stroke-linecap="round" stroke-linejoin="round" stroke-width="2.5"/>
    <path id="패스_12" data-name="패스 12" d="M59.676,24.931a9.34,9.34,0,1,1,9.34-9.336,9.342,9.342,0,0,1-9.34,9.336" fill="#d3e6fe"/>
    <path id="패스_13" data-name="패스 13" d="M59.676,24.931a9.34,9.34,0,1,1,9.34-9.336A9.342,9.342,0,0,1,59.676,24.931Z" fill="none" stroke="#d3e6fe" stroke-linecap="round" stroke-linejoin="round" stroke-width="2.5"/>
    <path id="패스_14" data-name="패스 14" d="M41.531,69.244a7.1,7.1,0,1,1-7.1,7.1,7.1,7.1,0,0,1,7.1-7.1" fill="#d3e6fe"/>
    <path id="패스_15" data-name="패스 15" d="M41.531,69.244a7.1,7.1,0,1,1-7.1,7.1A7.1,7.1,0,0,1,41.531,69.244Z" fill="none" stroke="#d3e6fe" stroke-linecap="round" stroke-linejoin="round" stroke-width="2.5"/>
    <path id="패스_16" data-name="패스 16" d="M80.363,74.338a4.556,4.556,0,1,1-4.555,4.553,4.559,4.559,0,0,1,4.555-4.553" fill="#d3e6fe"/>
    <path id="패스_17" data-name="패스 17" d="M80.363,74.338a4.556,4.556,0,1,1-4.555,4.553A4.559,4.559,0,0,1,80.363,74.338Z" fill="none" stroke="#d3e6fe" stroke-linecap="round" stroke-linejoin="round" stroke-width="2.5"/>
    <path id="패스_18" data-name="패스 18" d="M79.051,48.553a6.8,6.8,0,1,1-6.793,6.8,6.8,6.8,0,0,1,6.793-6.8" fill="#d3e6fe"/>
    <path id="패스_19" data-name="패스 19" d="M79.051,48.553a6.8,6.8,0,1,1-6.793,6.8A6.8,6.8,0,0,1,79.051,48.553Z" fill="none" stroke="#d3e6fe" stroke-linecap="round" stroke-linejoin="round" stroke-width="2.5"/>
    <path id="패스_20" data-name="패스 20" d="M80.746,27.558A4.94,4.94,0,1,1,75.809,32.5a4.942,4.942,0,0,1,4.937-4.942" fill="#d3e6fe"/>
    <path id="패스_21" data-name="패스 21" d="M80.746,27.558A4.94,4.94,0,1,1,75.809,32.5,4.942,4.942,0,0,1,80.746,27.558Z" fill="none" stroke="#d3e6fe" stroke-linecap="round" stroke-linejoin="round" stroke-width="2.5"/>
    <path id="패스_22" data-name="패스 22" d="M45.7,56.5a9.339,9.339,0,1,1,9.34-9.336A9.342,9.342,0,0,1,45.7,56.5" fill="#d3e6fe"/>
    <path id="패스_23" data-name="패스 23" d="M45.7,56.5a9.339,9.339,0,1,1,9.34-9.336A9.342,9.342,0,0,1,45.7,56.5Z" fill="none" stroke="#d3e6fe" stroke-linecap="round" stroke-linejoin="round" stroke-width="2.5"/>
    <line id="선_71" data-name="선 71" x1="18.172" y2="19.347" transform="translate(17.142 48.966)" fill="none" stroke="#47458e" stroke-linecap="round" stroke-linejoin="round" stroke-width="2.5"/>
    <line id="선_72" data-name="선 72" x2="16.764" y2="0.35" transform="translate(15.604 41.618)" fill="none" stroke="#47458e" stroke-linecap="round" stroke-linejoin="round" stroke-width="2.5"/>
    <line id="선_73" data-name="선 73" y1="14.493" x2="6.415" transform="translate(45.483 19.131)" fill="none" stroke="#47458e" stroke-linecap="round" stroke-linejoin="round" stroke-width="2.5"/>
    <line id="선_74" data-name="선 74" x2="11.461" y2="18.662" transform="translate(25.356 15.545)" fill="none" stroke="#47458e" stroke-linecap="round" stroke-linejoin="round" stroke-width="2.5"/>
    <line id="선_75" data-name="선 75" x2="24.422" y2="22.356" transform="translate(48.587 48.465)" fill="none" stroke="#47458e" stroke-linecap="round" stroke-linejoin="round" stroke-width="2.5"/>
    <line id="선_76" data-name="선 76" y1="12.914" x2="1.846" transform="translate(38.536 51.403)" fill="none" stroke="#47458e" stroke-linecap="round" stroke-linejoin="round" stroke-width="2.5"/>
    <line id="선_77" data-name="선 77" x2="17.691" y2="4.343" transform="translate(50.772 44.389)" fill="none" stroke="#47458e" stroke-linecap="round" stroke-linejoin="round" stroke-width="2.5"/>
    <line id="선_78" data-name="선 78" x1="21.872" y2="9.152" transform="translate(50.32 29.406)" fill="none" stroke="#47458e" stroke-linecap="round" stroke-linejoin="round" stroke-width="2.5"/>
    <path id="패스_24" data-name="패스 24" d="M41.7,51.5a9.339,9.339,0,1,1,9.34-9.336A9.342,9.342,0,0,1,41.7,51.5" fill="#f2f5fa"/>
    <path id="패스_25" data-name="패스 25" d="M41.7,51.5a9.339,9.339,0,1,1,9.34-9.336A9.342,9.342,0,0,1,41.7,51.5Z" fill="none" stroke="#47458e" stroke-linecap="round" stroke-linejoin="round" stroke-width="2.5"/>
    <path id="패스_26" data-name="패스 26" d="M13.712,66.95A5.016,5.016,0,1,1,8.7,71.965,5.015,5.015,0,0,1,13.712,66.95Z" fill="none" stroke="#47458e" stroke-linecap="round" stroke-linejoin="round" stroke-width="2.5"/>
    <circle id="타원_6" data-name="타원 6" cx="7.18" cy="7.18" r="7.18" transform="translate(1.25 34.288)" fill="none" stroke="#47458e" stroke-linecap="round" stroke-linejoin="round" stroke-width="2.5"/>
    <path id="패스_27" data-name="패스 27" d="M21.32,1.25A7.719,7.719,0,1,1,13.6,8.974,7.717,7.717,0,0,1,21.32,1.25Z" fill="none" stroke="#47458e" stroke-linecap="round" stroke-linejoin="round" stroke-width="2.5"/>
    <path id="패스_28" data-name="패스 28" d="M55.676,19.931a9.34,9.34,0,1,1,9.34-9.336A9.342,9.342,0,0,1,55.676,19.931Z" fill="none" stroke="#47458e" stroke-linecap="round" stroke-linejoin="round" stroke-width="2.5"/>
    <path id="패스_29" data-name="패스 29" d="M37.531,64.244a7.1,7.1,0,1,1-7.1,7.1A7.1,7.1,0,0,1,37.531,64.244Z" fill="none" stroke="#47458e" stroke-linecap="round" stroke-linejoin="round" stroke-width="2.5"/>
    <path id="패스_30" data-name="패스 30" d="M76.363,69.338a4.556,4.556,0,1,1-4.555,4.553A4.559,4.559,0,0,1,76.363,69.338Z" fill="none" stroke="#47458e" stroke-linecap="round" stroke-linejoin="round" stroke-width="2.5"/>
    <path id="패스_31" data-name="패스 31" d="M75.051,43.553a6.8,6.8,0,1,1-6.793,6.8A6.8,6.8,0,0,1,75.051,43.553Z" fill="none" stroke="#47458e" stroke-linecap="round" stroke-linejoin="round" stroke-width="2.5"/>
    <path id="패스_32" data-name="패스 32" d="M76.746,22.558A4.94,4.94,0,1,1,71.809,27.5,4.942,4.942,0,0,1,76.746,22.558Z" fill="none" stroke="#47458e" stroke-linecap="round" stroke-linejoin="round" stroke-width="2.5"/>
  </g>
</svg>
