<svg xmlns="http://www.w3.org/2000/svg" xmlns:xlink="http://www.w3.org/1999/xlink" width="69.664" height="42.571" viewBox="0 0 69.664 42.571">
  <defs>
    <clipPath id="clip-path">
      <rect id="사각형_3384" data-name="사각형 3384" width="69.664" height="42.572" fill="none" stroke="#9b9b9b" stroke-width="1"/>
    </clipPath>
  </defs>
  <g id="그룹_7670" data-name="그룹 7670" transform="translate(0 0)">
    <g id="그룹_7670-2" data-name="그룹 7670" transform="translate(0 0)" clip-path="url(#clip-path)">
      <path id="패스_2346" data-name="패스 2346" d="M64.355,5.731h-22.8V9.755a13.288,13.288,0,0,1,4.139,4.662,14.66,14.66,0,0,1,0,13.738,13.285,13.285,0,0,1-4.139,4.661V36.84h22.8ZM2.412,0h64.84a2.414,2.414,0,0,1,2.412,2.412V40.159a2.409,2.409,0,0,1-.707,1.7.539.539,0,0,1-.046.04,2.4,2.4,0,0,1-1.659.668H2.412a2.406,2.406,0,0,1-1.7-.708l0,0A2.4,2.4,0,0,1,0,40.159V2.412A2.4,2.4,0,0,1,.708.71v0h0A2.4,2.4,0,0,1,2.412,0m64.84,1.378a1.038,1.038,0,0,1,1.034,1.034V40.159a1.029,1.029,0,0,1-.3.731l-.027.028a1.029,1.029,0,0,1-.7.275H41.316V38.218H65.044a.689.689,0,0,0,.689-.689V5.042a.69.69,0,0,0-.689-.689H41.316V1.378Zm-38.9,0H2.412a1.031,1.031,0,0,0-.729.3v0a1.037,1.037,0,0,0-.3.732V40.159a1.033,1.033,0,0,0,1.034,1.034H28.348V38.218H4.619a.69.69,0,0,1-.689-.689V5.042a.69.69,0,0,1,.689-.689H28.348Zm7.173,0V41.192h4.416V1.378ZM34.143,41.192V1.378H29.727V41.192ZM57.663,18.685a2.608,2.608,0,0,1,1.844,4.455l0,0a2.611,2.611,0,0,1-3.692,0l-.041-.045a2.61,2.61,0,0,1,1.888-4.412m.871,1.74a1.234,1.234,0,0,1,0,1.742v0l0,0a1.23,1.23,0,0,1-1.742,0l-.031-.028a1.233,1.233,0,0,1,1.773-1.714M12,18.685a2.6,2.6,0,0,0-1.8.724l-.046.04a2.607,2.607,0,0,0,0,3.686l0,0h0v0a2.61,2.61,0,0,0,3.689-3.692v0A2.6,2.6,0,0,0,12,18.685m.87,1.738a1.238,1.238,0,0,0-1.713-.028l-.029.03a1.235,1.235,0,0,0,0,1.742l0,0a1.233,1.233,0,0,0,1.742-1.745l0,0Zm-2.72,2.713.006-.969a.69.69,0,0,0-.006.969M7.927,33.574h8.149a.689.689,0,1,0,0-1.377H7.927a.689.689,0,1,0,0,1.377m45.662,0a.689.689,0,1,1,0-1.377h8.15a.689.689,0,1,1,0,1.377Zm0-23.2a.689.689,0,1,1,0-1.378h8.15a.689.689,0,1,1,0,1.378Zm-45.662,0h8.149a.689.689,0,1,0,0-1.378H7.927a.689.689,0,1,0,0,1.378m33.624,1.1a12.055,12.055,0,0,1,2.928,3.591,13.309,13.309,0,0,1,0,12.437A12.071,12.071,0,0,1,41.551,31.1Zm-13.436,0a12.046,12.046,0,0,0-2.929,3.592,13.309,13.309,0,0,0,0,12.437A12.028,12.028,0,0,0,28.114,31.1Zm-4.14,2.941a13.282,13.282,0,0,1,4.14-4.662V5.731H5.31V36.84h22.8V32.816a13.278,13.278,0,0,1-4.14-4.661,14.668,14.668,0,0,1,0-13.738" transform="translate(0 0.001)" fill="#9b9b9b" stroke="#9b9b9b" stroke-width="1" fill-rule="evenodd"/>
    </g>
  </g>
</svg>
