<svg id="그룹_7665" data-name="그룹 7665" xmlns="http://www.w3.org/2000/svg" xmlns:xlink="http://www.w3.org/1999/xlink" width="56.434" height="62.301" viewBox="0 0 56.434 62.301">
  <defs>
    <clipPath id="clip-path">
      <rect id="사각형_3381" data-name="사각형 3381" width="56.434" height="62.301" fill="none"/>
    </clipPath>
  </defs>
  <g id="그룹_7664" data-name="그룹 7664" clip-path="url(#clip-path)">
    <path id="패스_2336" data-name="패스 2336" d="M29.311,53.9a41.834,41.834,0,0,0,12.1,1.958c9.085,0,13.812-3.666,14.164-3.954a1.517,1.517,0,0,0,.222-2.112,1.5,1.5,0,0,0-2.119-.205,17.852,17.852,0,0,1-5.886,2.55c-3.622.812-9.584,1.41-17.6-1.1a48.427,48.427,0,0,0-6.857-1.692l10.16-24.094a.38.38,0,0,0,.012-.1c2.4,1.411,3.5,3.376,3,4.662a1,1,0,0,0,.015,1.058,1.631,1.631,0,0,0,.872.844l.7.261a1.473,1.473,0,0,0,1.9-.752c.532-1.453,3.587-2.1,6.865-.773,3.413,1.329,5.081,3.883,4.522,5.288a1.457,1.457,0,0,0,.767,1.987,1.484,1.484,0,0,0,.631.106,1.658,1.658,0,0,0,1-.449,2.007,2.007,0,0,0,.947-.917A23.568,23.568,0,0,0,54.214,17.7,25.709,25.709,0,0,0,41.6,5a.331.331,0,0,0,.061-.1L42.827,2.1a1.569,1.569,0,0,0-.889-1.99,1.436,1.436,0,0,0-1.9.829L38.873,3.731a.97.97,0,0,0-.055.183C26.219-.429,12.4,5.429,7.563,17.49a1.1,1.1,0,0,0,.065,1.2,1.464,1.464,0,0,0,.906,1.393,1.431,1.431,0,0,0,1.911-.773c.67-1.457,3.578-2.106,6.977-.777a8.968,8.968,0,0,1,3.833,2.809,2.8,2.8,0,0,1,.6,2.519,1.527,1.527,0,0,0,.869,1.947l.468.168a1.283,1.283,0,0,0,1.2-.005,1,1,0,0,0,.736-.751,2.807,2.807,0,0,1,2.224-1.383,7.42,7.42,0,0,1,3.366.132c0,.035,0,.07,0,.108L20.225,48.805c-11.256-1.478-18.843.921-19.171,1.086a1.6,1.6,0,0,0-1,1.915,1.674,1.674,0,0,0,1.968.968A31.872,31.872,0,0,1,9.734,51.5a52.779,52.779,0,0,1,19.577,2.4m22.18-34.934a20.952,20.952,0,0,1,1.588,12.39,10.821,10.821,0,0,0-5.059-3.7,10.882,10.882,0,0,0-6.623-.768,45.506,45.506,0,0,0,2.594-12.7,20.408,20.408,0,0,0-.279-4.537,21.773,21.773,0,0,1,7.778,9.314m-32.96-3.227a11.417,11.417,0,0,0-6.275-.879,22.106,22.106,0,0,1,21.825-9.13,22.583,22.583,0,0,0-3.368,3.158,50.843,50.843,0,0,0-6.941,10.856.432.432,0,0,1-.079-.178,12.248,12.248,0,0,0-5.162-3.828m8.356,5.066c-.1.015-.2.041-.3.062C31.331,11.045,36.835,6.3,39.1,7.167c1.368.6,2.08,3.175,1.858,6.912a41,41,0,0,1-2.4,11.775,11.48,11.48,0,0,0-5.349-4.2,11.607,11.607,0,0,0-6.323-.845" transform="translate(0 0)" fill="#9b9b9b"/>
    <path id="패스_2337" data-name="패스 2337" d="M67.5,165.608a14.074,14.074,0,0,1-5.047,2.273c-3.081.845-8.337,1.278-15.287-1-14.662-4.861-25.22-1.219-25.644-1.047a1.509,1.509,0,0,0-.971,1.918,1.651,1.651,0,0,0,1.964.935,28.045,28.045,0,0,1,6.753-1.241,44.1,44.1,0,0,1,16.99,2.318A33.788,33.788,0,0,0,56.9,171.553c8.089,0,12.3-3.5,12.576-3.717a1.49,1.49,0,1,0-1.98-2.227" transform="translate(-13.603 -109.251)" fill="#9b9b9b"/>
  </g>
</svg>
