<svg xmlns="http://www.w3.org/2000/svg" xmlns:xlink="http://www.w3.org/1999/xlink" width="100.692" height="93.662" viewBox="0 0 100.692 93.662">
  <defs>
    <clipPath id="clip-path">
      <rect id="사각형_15" data-name="사각형 15" width="100.692" height="93.662" transform="translate(0 0)" fill="none"/>
    </clipPath>
  </defs>
  <g id="그룹_13" data-name="그룹 13" transform="translate(0 0)">
    <g id="그룹_12" data-name="그룹 12" clip-path="url(#clip-path)">
      <path id="패스_46" data-name="패스 46" d="M71,39.417c11.093,23.837,11.5,47.151.922,52.076S43.778,81.082,32.686,57.246s-11.5-47.152-.922-52.076S59.913,15.579,71,39.417Z" fill="none" stroke="#d3e6fe" stroke-linecap="round" stroke-linejoin="round" stroke-width="2.5"/>
      <path id="패스_47" data-name="패스 47" d="M52.309,27.2c26.284.575,47.386,10.5,47.131,22.167S77.667,70.033,51.383,69.458,4,58.955,4.252,47.289,26.025,26.629,52.309,27.2Z" fill="none" stroke="#d3e6fe" stroke-linecap="round" stroke-linejoin="round" stroke-width="2.5"/>
      <path id="패스_48" data-name="패스 48" d="M33.3,38.2C45.9,15.129,64.412.954,74.655,6.545S82.99,35.378,70.4,58.455,39.28,95.705,29.037,90.116,20.7,61.282,33.3,38.2Z" fill="none" stroke="#d3e6fe" stroke-linecap="round" stroke-linejoin="round" stroke-width="2.5"/>
      <path id="패스_49" data-name="패스 49" d="M38.037,35.718V54.947c0,2.655,4.84,4.81,10.809,4.81s10.809-2.155,10.809-4.81V35.718c0-2.659-4.841-4.812-10.809-4.812s-10.809,2.153-10.809,4.812" fill="#d1e5fd"/>
      <path id="패스_50" data-name="패스 50" d="M38.037,35.718V54.947c0,2.655,4.84,4.81,10.809,4.81s10.809-2.155,10.809-4.81V35.718c0-2.659-4.841-4.812-10.809-4.812S38.037,33.059,38.037,35.718Z" fill="none" stroke="#47458e" stroke-linecap="round" stroke-linejoin="round" stroke-width="2.5"/>
      <path id="패스_51" data-name="패스 51" d="M59.656,42.165c0,2.659-4.841,4.812-10.81,4.812s-10.808-2.153-10.808-4.812" fill="none" stroke="#47458e" stroke-linecap="round" stroke-linejoin="round" stroke-width="2.5"/>
      <path id="패스_52" data-name="패스 52" d="M59.656,48.612c0,2.66-4.841,4.814-10.81,4.814s-10.808-2.154-10.808-4.814" fill="none" stroke="#47458e" stroke-linecap="round" stroke-linejoin="round" stroke-width="2.5"/>
      <path id="패스_53" data-name="패스 53" d="M59.656,54.946c0,2.655-4.841,4.811-10.81,4.811S38.038,57.6,38.038,54.946" fill="none" stroke="#47458e" stroke-linecap="round" stroke-linejoin="round" stroke-width="2.5"/>
      <path id="패스_54" data-name="패스 54" d="M59.656,35.718c0,2.658-4.841,4.812-10.81,4.812s-10.808-2.154-10.808-4.812,4.84-4.812,10.808-4.812,10.81,2.153,10.81,4.812" fill="#fff"/>
      <path id="패스_55" data-name="패스 55" d="M59.656,35.718c0,2.658-4.841,4.812-10.81,4.812s-10.808-2.154-10.808-4.812,4.84-4.812,10.808-4.812S59.656,33.059,59.656,35.718Z" fill="none" stroke="#47458e" stroke-linecap="round" stroke-linejoin="round" stroke-width="2.5"/>
      <path id="패스_56" data-name="패스 56" d="M68,36.417c11.093,23.837,11.5,47.151.922,52.076S40.778,78.082,29.686,54.246,18.182,7.094,28.764,2.17,56.913,12.579,68,36.417Z" fill="none" stroke="#47458e" stroke-linecap="round" stroke-linejoin="round" stroke-width="2.5"/>
      <path id="패스_57" data-name="패스 57" d="M49.309,24.2c26.284.575,47.386,10.5,47.131,22.167S74.667,67.033,48.383,66.458,1,55.955,1.252,44.289,23.025,23.629,49.309,24.2Z" fill="none" stroke="#47458e" stroke-linecap="round" stroke-linejoin="round" stroke-width="2.5"/>
      <path id="패스_58" data-name="패스 58" d="M30.3,35.2C42.9,12.129,61.412-2.046,71.655,3.545S79.99,32.378,67.4,55.455,36.28,92.705,26.037,87.116,17.7,58.282,30.3,35.2Z" fill="none" stroke="#47458e" stroke-linecap="round" stroke-linejoin="round" stroke-width="2.5"/>
    </g>
  </g>
</svg>
