<svg xmlns="http://www.w3.org/2000/svg" width="30" height="29.999" viewBox="0 0 30 29.999">
  <g id="x" transform="translate(-8.998 -8.998)">
    <path id="패스_14662" data-name="패스 14662" d="M38.446,9.549a1.875,1.875,0,0,1,0,2.654L12.2,38.448a1.877,1.877,0,0,1-2.654-2.654L35.792,9.549a1.875,1.875,0,0,1,2.654,0Z" transform="translate(0)" fill-rule="evenodd"/>
    <path id="패스_14663" data-name="패스 14663" d="M9.549,9.549a1.875,1.875,0,0,0,0,2.654L35.793,38.448a1.877,1.877,0,0,0,2.654-2.654L12.2,9.549a1.875,1.875,0,0,0-2.654,0Z" transform="translate(0)" fill-rule="evenodd"/>
  </g>
</svg>
