<svg xmlns="http://www.w3.org/2000/svg" xmlns:xlink="http://www.w3.org/1999/xlink" width="122.556" height="114" viewBox="0 0 122.556 114">
  <defs>
    <clipPath id="clip-path">
      <rect id="사각형_15" data-name="사각형 15" width="122.556" height="114" fill="none"/>
    </clipPath>
  </defs>
  <g id="그룹_9831" data-name="그룹 9831" transform="translate(0 0)">
    <g id="그룹_12" data-name="그룹 12" transform="translate(0 0)" clip-path="url(#clip-path)">
      <path id="패스_46" data-name="패스 46" d="M81.192,47.053c13.5,29.013,14,57.389,1.122,63.384S48.053,97.765,34.553,68.754s-14-57.391-1.122-63.384S67.692,18.039,81.192,47.053Z" transform="translate(5.231 0.923)" fill="none" stroke="#d3e6fe" stroke-linecap="round" stroke-linejoin="round" stroke-width="2.5"/>
      <path id="패스_47" data-name="패스 47" d="M62.745,27.21c31.991.7,57.676,12.78,57.365,26.98s-26.5,25.149-58.492,24.449S3.941,65.855,4.253,51.656,30.753,26.51,62.745,27.21Z" transform="translate(0.923 5.901)" fill="none" stroke="#d3e6fe" stroke-linecap="round" stroke-linejoin="round" stroke-width="2.5"/>
      <path id="패스_48" data-name="패스 48" d="M35.656,45.343C50.987,17.258,73.524,0,85.992,6.81S96.137,41.9,80.808,69.992s-37.873,45.339-50.34,38.536S20.322,73.432,35.656,45.343Z" transform="translate(4.874 1.156)" fill="none" stroke="#d3e6fe" stroke-linecap="round" stroke-linejoin="round" stroke-width="2.5"/>
      <path id="패스_49" data-name="패스 49" d="M38.037,36.763v23.4c0,3.232,5.891,5.854,13.156,5.854S64.349,63.4,64.349,60.167v-23.4c0-3.236-5.892-5.857-13.156-5.857s-13.156,2.621-13.156,5.857" transform="translate(8.259 6.711)" fill="#d1e5fd"/>
      <path id="패스_50" data-name="패스 50" d="M38.037,36.763v23.4c0,3.232,5.891,5.854,13.156,5.854S64.349,63.4,64.349,60.167v-23.4c0-3.236-5.892-5.857-13.156-5.857S38.037,33.527,38.037,36.763Z" transform="translate(8.259 6.711)" fill="none" stroke="#47458e" stroke-linecap="round" stroke-linejoin="round" stroke-width="2.5"/>
      <path id="패스_51" data-name="패스 51" d="M64.35,42.165c0,3.236-5.892,5.857-13.157,5.857S38.038,45.4,38.038,42.165" transform="translate(8.26 9.156)" fill="none" stroke="#47458e" stroke-linecap="round" stroke-linejoin="round" stroke-width="2.5"/>
      <path id="패스_52" data-name="패스 52" d="M64.35,48.612c0,3.238-5.892,5.859-13.157,5.859S38.038,51.85,38.038,48.612" transform="translate(8.26 10.556)" fill="none" stroke="#47458e" stroke-linecap="round" stroke-linejoin="round" stroke-width="2.5"/>
      <path id="패스_53" data-name="패스 53" d="M64.35,54.946c0,3.232-5.892,5.856-13.157,5.856s-13.155-2.624-13.155-5.856" transform="translate(8.26 11.931)" fill="none" stroke="#47458e" stroke-linecap="round" stroke-linejoin="round" stroke-width="2.5"/>
      <path id="패스_54" data-name="패스 54" d="M64.35,36.763c0,3.235-5.892,5.857-13.157,5.857S38.038,40,38.038,36.763s5.891-5.857,13.155-5.857S64.35,33.527,64.35,36.763" transform="translate(8.26 6.711)" fill="#fff"/>
      <path id="패스_55" data-name="패스 55" d="M64.35,36.763c0,3.235-5.892,5.857-13.157,5.857S38.038,40,38.038,36.763s5.891-5.857,13.155-5.857S64.35,33.527,64.35,36.763Z" transform="translate(8.26 6.711)" fill="none" stroke="#47458e" stroke-linecap="round" stroke-linejoin="round" stroke-width="2.5"/>
      <path id="패스_56" data-name="패스 56" d="M78.192,44.053c13.5,29.013,14,57.389,1.122,63.384S45.053,94.765,31.553,65.754,17.551,8.363,30.43,2.37,64.692,15.039,78.192,44.053Z" transform="translate(4.579 0.271)" fill="none" stroke="#47458e" stroke-linecap="round" stroke-linejoin="round" stroke-width="2.5"/>
      <path id="패스_57" data-name="패스 57" d="M59.745,24.21c31.991.7,57.676,12.78,57.365,26.98s-26.5,25.149-58.492,24.449S.941,62.855,1.253,48.656,27.753,23.51,59.745,24.21Z" transform="translate(0.271 5.25)" fill="none" stroke="#47458e" stroke-linecap="round" stroke-linejoin="round" stroke-width="2.5"/>
      <path id="패스_58" data-name="패스 58" d="M32.656,42.343C47.987,14.258,70.524-3,82.992,3.81S93.137,38.9,77.808,66.992s-37.873,45.339-50.34,38.536S17.322,70.432,32.656,42.343Z" transform="translate(4.223 0.505)" fill="none" stroke="#47458e" stroke-linecap="round" stroke-linejoin="round" stroke-width="2.5"/>
    </g>
  </g>
</svg>
